<mxfile host="app.diagrams.net" modified="2022-06-25T07:10:07.128Z" agent="5.0 (Windows NT 10.0; Win64; x64) AppleWebKit/537.36 (KHTML, like Gecko) Chrome/102.0.5005.124 Safari/537.36 Edg/102.0.1245.44" etag="qak6nW6gm4WJW9k0W21m" version="20.0.3" type="github">
  <diagram id="OvXd4pWLuroQSiAIxeG7" name="Page-1">
    <mxGraphModel dx="460" dy="776" grid="1" gridSize="10" guides="1" tooltips="1" connect="1" arrows="1" fold="1" page="1" pageScale="1" pageWidth="827" pageHeight="1169" math="1" shadow="0">
      <root>
        <mxCell id="0" />
        <mxCell id="1" parent="0" />
        <mxCell id="GFnOPvBa0zapl--ub3mV-9" style="edgeStyle=orthogonalEdgeStyle;rounded=0;orthogonalLoop=1;jettySize=auto;html=1;exitX=0;exitY=0.5;exitDx=0;exitDy=0;entryX=0.5;entryY=1;entryDx=0;entryDy=0;startArrow=classic;startFill=1;" edge="1" parent="1" source="GFnOPvBa0zapl--ub3mV-1" target="GFnOPvBa0zapl--ub3mV-3">
          <mxGeometry relative="1" as="geometry" />
        </mxCell>
        <mxCell id="GFnOPvBa0zapl--ub3mV-10" style="edgeStyle=orthogonalEdgeStyle;rounded=0;orthogonalLoop=1;jettySize=auto;html=1;exitX=1;exitY=0.5;exitDx=0;exitDy=0;startArrow=classic;startFill=1;" edge="1" parent="1" source="GFnOPvBa0zapl--ub3mV-1" target="GFnOPvBa0zapl--ub3mV-4">
          <mxGeometry relative="1" as="geometry" />
        </mxCell>
        <mxCell id="GFnOPvBa0zapl--ub3mV-1" value="$$\mathbf{X}$$" style="whiteSpace=wrap;html=1;aspect=fixed;" vertex="1" parent="1">
          <mxGeometry x="90" y="270" width="40" height="40" as="geometry" />
        </mxCell>
        <mxCell id="GFnOPvBa0zapl--ub3mV-11" style="edgeStyle=orthogonalEdgeStyle;rounded=0;orthogonalLoop=1;jettySize=auto;html=1;exitX=0.5;exitY=0;exitDx=0;exitDy=0;entryX=0.5;entryY=1;entryDx=0;entryDy=0;startArrow=classic;startFill=1;" edge="1" parent="1" source="GFnOPvBa0zapl--ub3mV-3" target="GFnOPvBa0zapl--ub3mV-5">
          <mxGeometry relative="1" as="geometry" />
        </mxCell>
        <mxCell id="GFnOPvBa0zapl--ub3mV-3" value="$$\mathbf{W}_1$$" style="whiteSpace=wrap;html=1;aspect=fixed;" vertex="1" parent="1">
          <mxGeometry x="10" y="220" width="40" height="40" as="geometry" />
        </mxCell>
        <mxCell id="GFnOPvBa0zapl--ub3mV-12" style="edgeStyle=orthogonalEdgeStyle;rounded=0;orthogonalLoop=1;jettySize=auto;html=1;exitX=0.5;exitY=0;exitDx=0;exitDy=0;entryX=0.5;entryY=1;entryDx=0;entryDy=0;startArrow=classic;startFill=1;" edge="1" parent="1" source="GFnOPvBa0zapl--ub3mV-4" target="GFnOPvBa0zapl--ub3mV-6">
          <mxGeometry relative="1" as="geometry" />
        </mxCell>
        <mxCell id="GFnOPvBa0zapl--ub3mV-4" value="$$\mathbf{W}_2$$" style="whiteSpace=wrap;html=1;aspect=fixed;" vertex="1" parent="1">
          <mxGeometry x="170" y="220" width="40" height="40" as="geometry" />
        </mxCell>
        <mxCell id="GFnOPvBa0zapl--ub3mV-14" style="edgeStyle=orthogonalEdgeStyle;rounded=0;orthogonalLoop=1;jettySize=auto;html=1;exitX=0.5;exitY=0;exitDx=0;exitDy=0;entryX=0;entryY=0.5;entryDx=0;entryDy=0;startArrow=classic;startFill=1;" edge="1" parent="1" source="GFnOPvBa0zapl--ub3mV-5" target="GFnOPvBa0zapl--ub3mV-7">
          <mxGeometry relative="1" as="geometry" />
        </mxCell>
        <mxCell id="GFnOPvBa0zapl--ub3mV-5" value="$$\mathbf{h}_1$$" style="whiteSpace=wrap;html=1;aspect=fixed;" vertex="1" parent="1">
          <mxGeometry x="10" y="140" width="40" height="40" as="geometry" />
        </mxCell>
        <mxCell id="GFnOPvBa0zapl--ub3mV-13" style="edgeStyle=orthogonalEdgeStyle;rounded=0;orthogonalLoop=1;jettySize=auto;html=1;exitX=0.5;exitY=0;exitDx=0;exitDy=0;entryX=1;entryY=0.5;entryDx=0;entryDy=0;startArrow=classic;startFill=1;" edge="1" parent="1" source="GFnOPvBa0zapl--ub3mV-6" target="GFnOPvBa0zapl--ub3mV-7">
          <mxGeometry relative="1" as="geometry" />
        </mxCell>
        <mxCell id="GFnOPvBa0zapl--ub3mV-6" value="$$\mathbf{h}_2$$" style="whiteSpace=wrap;html=1;aspect=fixed;" vertex="1" parent="1">
          <mxGeometry x="170" y="140" width="40" height="40" as="geometry" />
        </mxCell>
        <mxCell id="GFnOPvBa0zapl--ub3mV-16" style="edgeStyle=orthogonalEdgeStyle;rounded=0;orthogonalLoop=1;jettySize=auto;html=1;exitX=0.5;exitY=0;exitDx=0;exitDy=0;entryX=0.5;entryY=1;entryDx=0;entryDy=0;startArrow=none;startFill=0;" edge="1" parent="1" source="GFnOPvBa0zapl--ub3mV-7" target="GFnOPvBa0zapl--ub3mV-8">
          <mxGeometry relative="1" as="geometry" />
        </mxCell>
        <mxCell id="GFnOPvBa0zapl--ub3mV-7" value="$$\hat{\mathbf{y}}$$" style="whiteSpace=wrap;html=1;aspect=fixed;" vertex="1" parent="1">
          <mxGeometry x="90" y="90" width="40" height="40" as="geometry" />
        </mxCell>
        <mxCell id="GFnOPvBa0zapl--ub3mV-8" value="$$\mathbf{J}$$" style="whiteSpace=wrap;html=1;aspect=fixed;" vertex="1" parent="1">
          <mxGeometry x="90" y="10" width="40" height="40" as="geometry" />
        </mxCell>
      </root>
    </mxGraphModel>
  </diagram>
</mxfile>
